# xmcd
#
# Track frame offsets: 
#        150
#        18105
#        48940
#        67680
#        88605
#        106270
#        127785
#        146307
#        162702
#        187655
#
# Disc length: 2776 seconds
#
# Revision: 8
# Processed by: cddbd v1.5.2PL0 Copyright (c) Steve Scherf et al.
# Submitted via: ExactAudioCopyFreeDBPlugin 1.0
#
DISCID=6d0ad60a
DTITLE=Fredl Fesl - 3-Die Dritte
DYEAR=1978
DGENRE=Cabaret
TTITLE0=Anlass-Jodler
TTITLE1=Schulmeisterei
TTITLE2=Der Bi-Ba-Butzemann
TTITLE3=Der Saubärgrunzer
TTITLE4=Preiss'n-Jodler
TTITLE5=Seelenblues
TTITLE6=Amen (Bibel-G'stanzl)
TTITLE7=Ein ländliches Problem
TTITLE8=Ihr allererstes Kind
TTITLE9=Schwedenlied
EXTD=YEAR: 1978
EXTT0=
EXTT1=
EXTT2=
EXTT3=
EXTT4=
EXTT5=
EXTT6=
EXTT7=
EXTT8=
EXTT9=
PLAYORDER=
